# xmcd
#
# Track frame offsets:
# 150
# 16549
# 37617
# 47613
# 65180
# 82782
# 92491
# 106586
# 123620
# 132985
# 149101
#
# Disc length: 2243 seconds
#
#
# Revision: 0
# Processed by: cddbd v1.5.1PL0 Copyright (c) Steve Scherf et al.
# Submitted via: FreeRIP 2.91 
#
DISCID=8508c10b
DTITLE=Tommy Brandt - Don't Stop Dancin
DYEAR=2003
DGENRE=Gospel
TTITLE0=I dont's Stop Dancin'
TTITLE1=The Old Man Is Dead
TTITLE2=God's Never Too Late
TTITLE3=Cross Standing in the Way
TTITLE4=Oasis
TTITLE5=Miracle Mountain
TTITLE6=Keep Me Away
TTITLE7=Speak The Word, Lord
TTITLE8=He Made A Believer out Of Me
TTITLE9=Nothing i Can't Do
TTITLE10=old Ship Of Zion
EXTD=
EXTT0=
EXTT1=
EXTT2=
EXTT3=
EXTT4=
EXTT5=
EXTT6=
EXTT7=
EXTT8=
EXTT9=
EXTT10=
PLAYORDER=
